<svg width="139" height="141" viewBox="0 0 139 141" fill="none" xmlns="http://www.w3.org/2000/svg">
    <path d="M138.515 70.5613C138.515 65.75 134.644 61.8585 129.858 61.8585H112.785L128.563 55.2925C132.983 53.4528 135.08 48.3585 133.25 43.9151C131.421 39.4717 126.354 37.3632 121.934 39.2028L106.156 45.7689L118.232 33.6274C121.61 30.2311 121.61 24.7123 118.232 21.316C114.854 17.9198 109.365 17.9198 105.987 21.316L93.9101 33.4575L100.441 17.5943C102.271 13.1509 100.174 8.05661 95.754 6.21698C91.3343 4.37736 86.2672 6.48585 84.4375 10.9292L77.9065 26.7925V9.62736C77.9065 4.81604 74.0358 0.92453 69.2503 0.92453C64.4647 0.92453 60.594 4.81604 60.594 9.62736V26.7925L54.0631 10.9292C52.2333 6.48585 47.1662 4.37736 42.7466 6.21698C38.3269 8.05661 36.2297 13.1509 38.0595 17.5943L44.5904 33.4575L32.5138 21.316C29.1358 17.9198 23.6464 17.9198 20.2684 21.316C16.8903 24.7123 16.8903 30.2311 20.2684 33.6274L32.3449 45.7689L16.5666 39.2028C12.1469 37.3632 7.07985 39.4717 5.25007 43.9151C3.42029 48.3585 5.5175 53.4528 9.93713 55.2925L25.7155 61.8585H8.65628C3.8707 61.8585 0 65.75 0 70.5613C0 75.3726 3.8707 79.2642 8.65628 79.2642H25.7296L9.95121 85.8302C5.53158 87.6698 3.43436 92.7641 5.26415 97.2075C6.64352 100.561 9.86675 102.585 13.273 102.585C14.3708 102.585 15.4969 102.373 16.5807 101.92L32.359 95.3538L20.2824 107.495C16.9044 110.892 16.9044 116.41 20.2824 119.807C21.9715 121.505 24.1954 122.354 26.4052 122.354C28.615 122.354 30.8389 121.505 32.5279 119.807L44.6045 107.665L38.0736 123.528C36.2438 127.972 38.341 133.066 42.7606 134.906C43.8444 135.358 44.9704 135.571 46.0683 135.571C49.4604 135.571 52.6837 133.547 54.0771 130.193L60.6081 114.33V131.495C60.6081 136.307 64.4787 140.198 69.2643 140.198C74.0499 140.198 77.9206 136.307 77.9206 131.495V114.33L84.4515 130.193C85.8309 133.547 89.0541 135.571 92.4604 135.571C93.5582 135.571 94.6842 135.358 95.768 134.906C100.188 133.066 102.285 127.972 100.455 123.528L93.9242 107.665L106.001 119.807C107.69 121.505 109.9 122.354 112.123 122.354C114.347 122.354 116.557 121.505 118.246 119.807C121.624 116.41 121.624 110.892 118.246 107.495L106.17 95.3538L121.948 101.92C123.032 102.373 124.158 102.585 125.256 102.585C128.648 102.585 131.871 100.561 133.265 97.2075C135.094 92.7641 132.997 87.6698 128.577 85.8302L112.799 79.2642H129.872C134.658 79.2642 138.529 75.3726 138.529 70.5613H138.515Z" fill="#014E3D"/>
    <path d="M126.396 70.5613C126.396 65.75 122.525 61.8585 117.74 61.8585H101.567L115.572 53.7358C119.71 51.3302 121.132 46.0094 118.739 41.8491C116.346 37.6887 111.054 36.2594 106.916 38.6651L92.9108 46.7877L100.99 32.7075C103.383 28.5472 101.961 23.2264 97.823 20.8208C93.6849 18.4151 88.3926 19.8443 85.9998 24.0047L77.9206 38.0849V21.8255C77.9206 17.0142 74.0499 13.1226 69.2643 13.1226C64.4788 13.1226 60.6081 17.0142 60.6081 21.8255V38.0849L52.5148 24.0047C50.122 19.8443 44.8297 18.4151 40.6916 20.8208C36.5534 23.2264 35.1318 28.5472 37.5246 32.7075L45.6038 46.7877L31.599 38.6651C27.4608 36.2594 22.1685 37.6887 19.7757 41.8491C17.383 46.0094 18.8046 51.3302 22.9427 53.7358L36.9476 61.8585H20.7751C15.9895 61.8585 12.1188 65.75 12.1188 70.5613C12.1188 75.3726 15.9895 79.2641 20.7751 79.2641H36.9476L22.9427 87.4009C18.8046 89.8066 17.383 95.1274 19.7757 99.2877C21.3803 102.075 24.2939 103.646 27.2779 103.646C28.7417 103.646 30.2337 103.264 31.599 102.486L45.6038 94.3632L37.5246 108.443C35.1318 112.604 36.5534 117.925 40.6916 120.33C42.0569 121.123 43.5488 121.491 45.0127 121.491C48.0107 121.491 50.9102 119.934 52.5148 117.132L60.6081 103.052V119.311C60.6081 124.123 64.4788 128.014 69.2643 128.014C74.0499 128.014 77.9206 124.123 77.9206 119.311V103.052L85.9998 117.132C87.6044 119.92 90.518 121.491 93.5019 121.491C94.9658 121.491 96.4577 121.108 97.823 120.33C101.961 117.925 103.383 112.604 100.99 108.443L92.9108 94.3632L106.916 102.486C108.281 103.278 109.773 103.646 111.237 103.646C114.235 103.646 117.134 102.09 118.739 99.2877C121.132 95.1274 119.71 89.8066 115.572 87.4009L101.567 79.2641H117.74C122.525 79.2641 126.396 75.3726 126.396 70.5613Z" fill="#00684A"/>
    <path d="M105.621 61.8585H90.1661L101.103 50.8632C104.481 47.467 104.481 41.9481 101.103 38.5519C97.7245 35.1557 92.2352 35.1557 88.8571 38.5519L77.9206 49.5472V34.0094C77.9206 29.1981 74.0499 25.3066 69.2643 25.3066C64.4788 25.3066 60.6081 29.1981 60.6081 34.0094V49.5472L49.6716 38.5519C46.2935 35.1557 40.8042 35.1557 37.4261 38.5519C34.0481 41.9481 34.0481 47.467 37.4261 50.8632L48.3626 61.8585H32.908C28.1224 61.8585 24.2517 65.75 24.2517 70.5613C24.2517 75.3726 28.1224 79.2641 32.908 79.2641H48.3767L37.4402 90.2594C34.0621 93.6557 34.0621 99.1745 37.4402 102.571C39.1292 104.269 41.3531 105.118 43.5629 105.118C45.7727 105.118 47.9966 104.269 49.6857 102.571L60.6221 91.5755V107.113C60.6221 111.925 64.4928 115.816 69.2784 115.816C74.064 115.816 77.9347 111.925 77.9347 107.113V91.5755L88.8712 102.571C90.5602 104.269 92.7841 105.118 94.9939 105.118C97.2037 105.118 99.4276 104.269 101.117 102.571C104.495 99.1745 104.495 93.6557 101.117 90.2594L90.1802 79.2641H105.649C110.434 79.2641 114.305 75.3726 114.305 70.5613C114.305 65.75 110.434 61.8585 105.649 61.8585H105.621Z" fill="#00AA57"/>
    <path d="M93.5019 61.8585H84.2545L88.8712 53.8066C91.264 49.6462 89.8424 44.3255 85.7042 41.9198C81.5661 39.5141 76.2738 40.9434 73.881 45.1038L69.2643 53.1557L64.6476 45.1038C62.2549 40.9434 56.9626 39.5141 52.8244 41.9198C48.6863 44.3255 47.2647 49.6462 49.6575 53.8066L54.2742 61.8585H45.0267C40.2411 61.8585 36.3705 65.75 36.3705 70.5613C36.3705 75.3726 40.2411 79.2641 45.0267 79.2641H54.2742L49.6575 87.316C47.2647 91.4764 48.6863 96.7972 52.8244 99.2028C54.1897 99.9953 55.6817 100.363 57.1455 100.363C60.1436 100.363 63.0431 98.8066 64.6476 96.0047L69.2643 87.9528L73.881 96.0047C75.4856 98.7925 78.3992 100.363 81.3831 100.363C82.847 100.363 84.3389 99.9811 85.7042 99.2028C89.8424 96.7972 91.264 91.4764 88.8712 87.316L84.2545 79.2641H93.5019C98.2875 79.2641 102.158 75.3726 102.158 70.5613C102.158 65.75 98.2875 61.8585 93.5019 61.8585Z" fill="#00ED64"/>
</svg>
