<svg width="1300" height="1080" viewBox="0 0 1300 1080" fill="none" xmlns="http://www.w3.org/2000/svg">
    <g clip-path="url(#clip0_1384_30412)">
        <g clip-path="url(#clip1_1384_30412)">
            <path
                d="M599.957 390.451V695.191C599.957 724.474 623.695 748.186 652.946 748.186H702.85C759.266 748.186 805 793.924 805 850.346C805 906.769 759.266 952.507 702.85 952.507H498.949C442.332 952.507 396.428 998.417 396.428 1055.04C396.428 1111.66 442.332 1157.57 498.949 1157.57H1163.58C1192.86 1157.57 1216.57 1133.83 1216.57 1104.58V596.144C1216.57 574.575 1203.52 555.177 1183.55 547.035L677.541 341.342C671.085 338.714 664.172 337.4 657.231 337.428L652.603 337.457C623.466 337.657 599.957 361.34 599.957 390.451Z"
                stroke="#38F973" stroke-miterlimit="10" />
            <path
                d="M518.515 389.561C518.515 384.75 514.644 380.859 509.858 380.859H492.785L508.563 374.292C512.983 372.453 515.08 367.359 513.25 362.915C511.421 358.472 506.354 356.363 501.934 358.203L486.156 364.769L498.232 352.627C501.61 349.231 501.61 343.712 498.232 340.316C494.854 336.92 489.365 336.92 485.987 340.316L473.91 352.458L480.441 336.594C482.271 332.151 480.174 327.057 475.754 325.217C471.334 323.377 466.267 325.486 464.437 329.929L457.907 345.792V328.627C457.907 323.816 454.036 319.925 449.25 319.925C444.465 319.925 440.594 323.816 440.594 328.627V345.792L434.063 329.929C432.233 325.486 427.166 323.377 422.747 325.217C418.327 327.057 416.23 332.151 418.059 336.594L424.59 352.458L412.514 340.316C409.136 336.92 403.646 336.92 400.268 340.316C396.89 343.712 396.89 349.231 400.268 352.627L412.345 364.769L396.567 358.203C392.147 356.363 387.08 358.472 385.25 362.915C383.42 367.359 385.517 372.453 389.937 374.292L405.715 380.859H388.656C383.871 380.859 380 384.75 380 389.561C380 394.373 383.871 398.264 388.656 398.264H405.73L389.951 404.83C385.532 406.67 383.434 411.764 385.264 416.208C386.644 419.561 389.867 421.585 393.273 421.585C394.371 421.585 395.497 421.373 396.581 420.92L412.359 414.354L400.282 426.495C396.904 429.892 396.904 435.41 400.282 438.807C401.971 440.505 404.195 441.354 406.405 441.354C408.615 441.354 410.839 440.505 412.528 438.807L424.604 426.665L418.074 442.528C416.244 446.972 418.341 452.066 422.761 453.906C423.844 454.359 424.97 454.571 426.068 454.571C429.46 454.571 432.684 452.547 434.077 449.193L440.608 433.33V450.495C440.608 455.307 444.479 459.198 449.264 459.198C454.05 459.198 457.921 455.307 457.921 450.495V433.33L464.452 449.193C465.831 452.547 469.054 454.571 472.46 454.571C473.558 454.571 474.684 454.359 475.768 453.906C480.188 452.066 482.285 446.972 480.455 442.528L473.924 426.665L486.001 438.807C487.69 440.505 489.9 441.354 492.123 441.354C494.347 441.354 496.557 440.505 498.246 438.807C501.624 435.41 501.624 429.892 498.246 426.495L486.17 414.354L501.948 420.92C503.032 421.373 504.158 421.585 505.256 421.585C508.648 421.585 511.871 419.561 513.265 416.208C515.094 411.764 512.997 406.67 508.577 404.83L492.799 398.264H509.872C514.658 398.264 518.529 394.373 518.529 389.561H518.515Z"
                fill="#014E3D" />
            <path
                d="M506.396 389.561C506.396 384.75 502.525 380.858 497.74 380.858H481.567L495.572 372.736C499.71 370.33 501.132 365.009 498.739 360.849C496.346 356.689 491.054 355.259 486.916 357.665L472.911 365.788L480.99 351.707C483.383 347.547 481.961 342.226 477.823 339.821C473.685 337.415 468.393 338.844 466 343.005L457.921 357.085V340.825C457.921 336.014 454.05 332.123 449.265 332.123C444.479 332.123 440.608 336.014 440.608 340.825V357.085L432.515 343.005C430.122 338.844 424.83 337.415 420.692 339.821C416.554 342.226 415.132 347.547 417.525 351.707L425.604 365.788L411.599 357.665C407.461 355.259 402.169 356.689 399.776 360.849C397.383 365.009 398.805 370.33 402.943 372.736L416.948 380.858H400.775C395.99 380.858 392.119 384.75 392.119 389.561C392.119 394.373 395.99 398.264 400.775 398.264H416.948L402.943 406.401C398.805 408.807 397.383 414.127 399.776 418.288C401.381 421.075 404.294 422.646 407.278 422.646C408.742 422.646 410.234 422.264 411.599 421.486L425.604 413.363L417.525 427.443C415.132 431.604 416.554 436.924 420.692 439.33C422.057 440.123 423.549 440.49 425.013 440.49C428.011 440.49 430.911 438.934 432.515 436.132L440.608 422.052V438.311C440.608 443.123 444.479 447.014 449.265 447.014C454.05 447.014 457.921 443.123 457.921 438.311V422.052L466 436.132C467.605 438.92 470.518 440.49 473.502 440.49C474.966 440.49 476.458 440.108 477.823 439.33C481.961 436.924 483.383 431.604 480.99 427.443L472.911 413.363L486.916 421.486C488.281 422.278 489.773 422.646 491.237 422.646C494.235 422.646 497.135 421.09 498.739 418.288C501.132 414.127 499.71 408.807 495.572 406.401L481.567 398.264H497.74C502.525 398.264 506.396 394.373 506.396 389.561V389.561Z"
                fill="#00684A" />
            <path
                d="M485.621 380.859H470.166L481.103 369.863C484.481 366.467 484.481 360.948 481.103 357.552C477.725 354.156 472.235 354.156 468.857 357.552L457.921 368.547V353.009C457.921 348.198 454.05 344.307 449.265 344.307C444.479 344.307 440.608 348.198 440.608 353.009V368.547L429.672 357.552C426.294 354.156 420.804 354.156 417.426 357.552C414.048 360.948 414.048 366.467 417.426 369.863L428.363 380.859H412.908C408.123 380.859 404.252 384.75 404.252 389.561C404.252 394.373 408.123 398.264 412.908 398.264H428.377L417.44 409.259C414.062 412.656 414.062 418.175 417.44 421.571C419.13 423.269 421.353 424.118 423.563 424.118C425.773 424.118 427.997 423.269 429.686 421.571L440.622 410.576V426.113C440.622 430.925 444.493 434.816 449.279 434.816C454.064 434.816 457.935 430.925 457.935 426.113V410.576L468.871 421.571C470.56 423.269 472.784 424.118 474.994 424.118C477.204 424.118 479.428 423.269 481.117 421.571C484.495 418.175 484.495 412.656 481.117 409.259L470.18 398.264H485.649C490.435 398.264 494.305 394.373 494.305 389.561C494.305 384.75 490.435 380.859 485.649 380.859H485.621Z"
                fill="#00AA57" />
            <path
                d="M473.503 380.859H464.255L468.872 372.807C471.265 368.646 469.843 363.326 465.705 360.92C461.567 358.514 456.274 359.943 453.882 364.104L449.265 372.156L444.648 364.104C442.255 359.943 436.963 358.514 432.825 360.92C428.687 363.326 427.265 368.646 429.658 372.807L434.275 380.859H425.027C420.242 380.859 416.371 384.75 416.371 389.561C416.371 394.373 420.242 398.264 425.027 398.264H434.275L429.658 406.316C427.265 410.476 428.687 415.797 432.825 418.203C434.19 418.995 435.682 419.363 437.146 419.363C440.144 419.363 443.044 417.807 444.648 415.005L449.265 406.953L453.882 415.005C455.486 417.793 458.4 419.363 461.384 419.363C462.848 419.363 464.34 418.981 465.705 418.203C469.843 415.797 471.265 410.476 468.872 406.316L464.255 398.264H473.503C478.288 398.264 482.159 394.373 482.159 389.561C482.159 384.75 478.288 380.859 473.503 380.859Z"
                fill="#00ED64" />
        </g>
        <g clip-path="url(#clip2_1384_30412)">
            <path
                d="M959.043 634.548L959.043 329.809C959.043 300.526 935.305 276.814 906.054 276.814L856.15 276.814C799.734 276.814 754 231.076 754 174.654C754 118.231 799.734 72.4927 856.15 72.4927L1060.05 72.4927C1116.67 72.4927 1162.57 26.5832 1162.57 -30.0395C1162.57 -86.6622 1116.67 -132.572 1060.05 -132.572L395.418 -132.572C366.138 -132.572 342.429 -108.831 342.429 -79.5772L342.429 428.856C342.429 450.425 355.483 469.823 375.451 477.965L881.459 683.658C887.915 686.286 894.828 687.6 901.769 687.572L906.397 687.543C935.534 687.343 959.043 663.66 959.043 634.548Z"
                stroke="#38F973" stroke-miterlimit="10" />
        </g>
    </g>
    <defs>
        <clipPath id="clip0_1384_30412">
            <rect width="1300" height="1080" fill="white" />
        </clipPath>
        <clipPath id="clip1_1384_30412">
            <rect width="838" height="840" fill="white" transform="translate(380 319)" />
        </clipPath>
        <clipPath id="clip2_1384_30412">
            <rect width="823" height="823" fill="white" transform="translate(1164 689) rotate(-180)" />
        </clipPath>
    </defs>
</svg>
