<svg width="1007" height="1137" viewBox="0 0 1007 1137" fill="none" xmlns="http://www.w3.org/2000/svg">
    <path
        d="M879.174 424.772V427.329C879.174 505.418 944.699 568.657 1025.46 568.46H1028.71C1109.37 568.165 1175 631.404 1175 709.591V995.395C1175 1073.29 1109.78 1136.53 1029.22 1136.53H731.362C650.904 1136.53 585.583 1073.39 585.583 995.395V993.33C585.583 915.437 520.362 852.198 439.802 852.198H146.211C65.7528 852.198 0.430908 789.058 0.430908 711.067V709.494C0.430908 631.405 65.9559 568.166 146.719 568.362C226.974 568.657 292.397 506.008 293.007 428.312L294.124 279.215C295.242 124.413 425.478 -0.39247 585.379 0.000927464L1028.51 1.08323C1108.46 1.27993 1173.27 63.7317 1173.88 141.133V141.526C1174.49 219.812 1109.07 283.641 1028.1 283.641H1024.85C944.495 283.641 879.174 346.781 879.174 424.772Z"
        fill="#EEFDFA" />
</svg>
